<svg xmlns="http://www.w3.org/2000/svg" viewBox="0 0 100 100">
  <defs>
    <linearGradient id="grad1" x1="0%" y1="0%" x2="100%" y2="100%">
      <stop offset="0%" style="stop-color:#10b981;stop-opacity:1" />
      <stop offset="100%" style="stop-color:#059669;stop-opacity:1" />
    </linearGradient>
  </defs>
  <!-- 背景圓形 -->
  <circle cx="50" cy="50" r="48" fill="url(#grad1)" stroke="#065f46" stroke-width="2"/>
  <!-- 代表低碳的葉子/植物圖案 -->
  <path d="M 50 20 Q 35 30, 30 45 Q 30 55, 40 60 Q 35 65, 35 75 Q 35 80, 40 80 Q 45 75, 50 70 Q 55 75, 60 80 Q 65 80, 65 75 Q 65 65, 60 60 Q 70 55, 70 45 Q 70 30, 55 20 Z" fill="#ffffff" opacity="0.9"/>
  <!-- 代表城市的建築物 -->
  <rect x="20" y="60" width="8" height="20" fill="#1e293b" opacity="0.7"/>
  <rect x="30" y="55" width="8" height="25" fill="#1e293b" opacity="0.7"/>
  <rect x="62" y="58" width="8" height="22" fill="#1e293b" opacity="0.7"/>
  <rect x="72" y="62" width="8" height="18" fill="#1e293b" opacity="0.7"/>
</svg>

